<?xml version="1.0" encoding="UTF-8"?>
<svg id="Calque_2" data-name="Calque 2" xmlns="http://www.w3.org/2000/svg" viewBox="0 0 152.44 196.88">
  <defs>
    <style>
      .cls-1 {
        fill: #d31f1d;
      }
    </style>
  </defs>
  <g id="Calque_1-2" data-name="Calque 1">
    <g>
      <path class="cls-1" d="M86.94,145.48c1.14-.87,3.7-1.75,5.11-2.35-.07-2.15-.94-4.17-.4-5.98.94-3.22,3.16-4.64,5.31-4.9.13.07.27.34.13.4-1.21,1.14-1.68,2.75-1.88,4.5-.07.67-.2,2.75.4,4.23,1.28-.67,4.37-1.75,5.37-1.95.13-2.15.47-4.23,1.07-5.78,1.21-3.02,3.9-5.44,6.58-4.03.13.07.27.34.13.4-1.68.6-2.75,2.35-3.7,4.37-.27.6-1.21,3.83-.13,4.5,0,0,.07,0,.07.07,1.95-.4,2.28-.2,4.37-.4.34-2.08,1.28-3.9,2.08-5.24,1.21-2.35,4.37-4.23,7.19-2.55.13.07.27.4.07.4-1.95.4-3.22,1.68-3.9,2.82-.34.54-2.15,3.02-1.21,4.03h.34c1.68-.07,2.89.27,4.64.6.54-1.28,1.01-1.41,1.55-2.08,1.95-2.35,5.24-3.16,6.38-.94.13.13.13.4,0,.4-1.01.13-2.69.67-3.49,1.68-.2.2-.74.81-1.28,1.95,2.28,1.75,3.56,3.16,4.17,5.51.13.4.34,2.82-.47,1.61-3.7-4.64-8.67-5.64-16.12-4.9-7.99.74-11.69,1.95-19.68,6.25,4.43,3.96-2.22,7.86-3.29,2.02-3.9,5.91-7.99-1.55-2.75-2.62-5.37-5.24,1.95-7.66,3.36-2.02h0Z"/>
      <path class="cls-1" d="M100.57,119.95c2.89-.94,6.05-1.95,7.66-2.28.27-4.7,4.7-10.55,9.94-8.53.2.07.34.34.13.4-1.34.4-5.64,4.5-4.17,7.12,1.07.07,4.03,0,4.9.07,1.14-5.17,5.64-8.8,10.75-6.45.2.07.34.4.13.4-2.02.34-6.58,3.56-6.05,6.32.94.07,3.49.94,5.11,1.81.6-1.28,1.28-1.75,1.88-2.42,2.22-2.35,6.79-2.55,8.13-.27.13.13.13.4,0,.4-1.95-.07-3.7.2-5.37,1.68-.27.2-.81,1.01-1.41,2.15,1.61.87,3.43,2.55,3.76,4.17.27.81.4,1.48.27,2.28-.07.2-.47,0-.6-.13-4.23-4.64-13.57-7.52-22.64-6.38-6.05.74-11.96,2.42-16.86,4.57,1.68-1.48,3.16-3.09,4.43-4.9h0ZM87.27,130.43c-.4.4-.81.74-1.14,1.14,2.15,2.96-1.28,5.31-2.28,2.35-2.55,2.75-4.57-.47-2.89-1.81,2.15-.34,4.3-.87,6.32-1.68h0Z"/>
      <path class="cls-1" d="M85.79,170.07c.6-.67,2.08-1.95,2.82-2.55-2.28-3.56-1.01-8.13,1.21-8.47.13.07.2.27.13.4-.6.87-.87,5.58.87,6.58.87-.6,2.55-1.81,3.29-2.02-1.28-4.3.94-10.08,5.24-9.14.13.07.2.34.13.4-3.49,1.81-3.56,7.19-2.62,7.79,1.41-.4,2.96-1.01,4.5-1.14.67-5.71,5.71-8.26,8.26-6.79.13.07.2.4.13.4-1.41-.81-6.72,4.64-4.97,6.25,1.21-.07,2.62.47,4.03.81.6-3.16,5.04-5.78,6.92-3.76.13.13.13.4.07.4-1.68.34-3.9,1.88-4.23,4.84,3.56,1.68,3.16,5.17,2.55,4.23-3.36-4.43-10.48-3.7-15.92-2.55-3.16.67-7.59,3.7-9.47,5.85,5.71,2.69.54,7.73-1.88,2.02-3.96,6.99-7.86.6-3.22-1.28-5.64-4.37.2-7.32,2.15-2.28h0Z"/>
      <path class="cls-1" d="M28.28,164.76c-5.64-6.52-10.41-13.57-14.24-20.69h61.81v20.69H28.28Z"/>
      <polygon class="cls-1" points="105.61 63.65 151.03 63.65 151.03 81.46 105.61 81.46 105.61 63.65"/>
      <polygon class="cls-1" points="151.03 36.64 137.59 31.87 121.94 28.72 104.34 24.89 88.01 23.61 75.58 23.61 75.58 42.35 150.96 42.35 151.03 36.64"/>
      <path class="cls-1" d="M11.15,15.61c1.81-.6,3.63-1.14,5.51-1.68.67-.2,1.34-.4,2.08-.54.74-.13,1.48-.2,2.22,0l.27.13c.27.13.4.34.54.6.2.47.27.94.34,1.48.13,1.07.13,2.15,0,3.22-.07.87-.2,1.75-.54,2.49-.13.34-.34.6-.6.87-.2.2-.4.4-.6.54-.47.34-.87.6-1.41.81-1.21.54-2.42.94-3.7,1.34-2.15.74-4.3,1.48-6.45,2.22v3.96c-1.07.4-2.15.87-3.22,1.28v-14.91c1.88-.6,3.7-1.21,5.58-1.81h0ZM8.8,24.42c2.15-.74,4.3-1.48,6.52-2.22.67-.2,1.34-.4,1.95-.67l.47-.27.2-.13.2-.2.2-.2.13-.2.2-.4c.07-.27.13-.47.13-.74.07-.67.07-1.28-.13-1.95l-.13-.34-.13-.27-.2-.2-.27-.13-.27-.07h-.54c-.67.07-1.28.27-1.95.47-2.15.67-4.3,1.41-6.45,2.08l.07,5.44h0ZM36.15,8.83c1.48-.27,2.89-.54,4.37-.67.47-.07.94-.07,1.41-.07.2,0,.47.07.67.13.2.07.34.13.54.27.13.13.27.2.4.34s.2.34.27.47c.13.27.2.47.2.74.13.87.2,1.81.27,2.75.07,1.07.07,2.08,0,3.09,0,.4,0,.87-.07,1.28-.07.81-.07,1.61-.27,2.42-.07.2-.13.4-.2.54-.13.27-.27.54-.47.81l-.4.6-.6.4c-.27.13-.47.2-.74.34-1.07.34-2.15.54-3.22.81-2.22.47-4.43.87-6.65,1.34-1.07.2-2.15.4-3.22.54-.27.07-.6.07-.87.07l-.67-.07c-.2-.07-.34-.13-.47-.2l-.34-.27-.27-.4-.4-2.22v-5.98c.07-.67.13-1.41.27-2.08l.2-.6c.13-.34.27-.6.47-.87l.47-.54.4-.34c.4-.27.87-.54,1.41-.74l2.42-.74c1.55-.47,3.29-.81,5.11-1.14h0ZM34.47,11.85l-3.49.81c-.27.07-.54.2-.81.27l-.27.2-.27.2-.2.2-.2.2-.2.2-.13.27c-.13.2-.2.47-.27.67-.2.87-.2,1.75-.2,2.62,0,.94,0,1.88.13,2.75l.13.34.2.34.27.27.27.2.34.13.34.07h.4c.27,0,.47,0,.67-.07,1.34-.2,2.69-.47,4.03-.74,1.07-.2,2.22-.47,3.29-.74.2-.07.47-.13.67-.2l.34-.2.34-.2.27-.27.27-.27.2-.34.13-.34.13-.34c.2-1.01.13-1.95.13-2.96,0-.54,0-1.07-.07-1.55l-.07-.4c-.07-.27-.13-.54-.27-.81l-.13-.27-.13-.2-.2-.2-.13-.07-.27-.13-.27-.07-.54-.07c-.6,0-1.14.07-1.68.13-.94.2-1.88.4-2.75.54h0ZM56.64,6.34c1.68-.13,3.36-.27,5.04-.27h1.07c.4,0,.74.07,1.07.27.13.07.27.13.34.2.27.2.47.4.6.74.13.2.2.47.27.67.13.54.13,1.14.13,1.68,0,.74,0,1.41-.07,2.15,0,.27-.07.54-.13.81l-.13.27c-.13.2-.2.34-.34.54l-.34.27c-.13.07-.27.2-.47.27-.2.07-.47.13-.67.2l-1.81.4,1.81,1.01c.27.2.47.34.67.54l.2.27c.27.4.47.81.67,1.28.27.81.4,1.61.4,2.42-1.07.07-2.15.07-3.22.13-.07-.6-.13-1.14-.34-1.75l-.27-.67-.13-.34-.2-.27-.2-.27-.27-.2-.34-.2c-.2-.07-.4-.13-.6-.13-.4-.07-.87,0-1.28,0-2.08.13-4.1.34-6.18.54l-.81.07v3.96c-1.07.13-2.15.27-3.22.34V7.15c2.96-.34,5.85-.6,8.73-.81h0ZM51.19,14.54c2.15-.2,4.3-.4,6.45-.54.74-.07,1.48-.13,2.22-.2.2,0,.4-.07.6-.13l.27-.07.27-.13.2-.13.2-.2.13-.2.13-.2c.07-.2.13-.34.13-.54.07-.6.07-1.21.07-1.81,0-.2-.07-.4-.13-.67l-.13-.2-.13-.2-.2-.2-.2-.13-.2-.13-.27-.07c-.2-.07-.4-.07-.6-.07-1.07,0-2.15.13-3.16.2-1.88.13-3.7.34-5.58.47l-.07,5.17h0ZM74.04,17.83h3.7c.81,0,1.68,0,2.55-.07.2,0,.34-.07.54-.07.2-.07.34-.13.47-.2l.2-.13.13-.2.13-.2.07-.2.07-.47v-.67l-.13-.74-.07-.2-.07-.2-.13-.2-.2-.13-.2-.13-.47-.13-.81-.13h-7.79c-.67,0-1.34,0-1.95-.13-.2-.07-.34-.07-.47-.13l-.2-.13-.2-.13-.13-.13-.13-.2-.13-.2c-.13-.27-.27-.54-.34-.81-.13-.74-.13-1.55-.13-2.28,0-.94.07-1.88.47-2.75.07-.13.2-.27.27-.4.47-.4,1.07-.6,1.68-.74.6-.13,1.28-.13,1.88-.13h4.43c2.42,0,4.9.07,7.32.13v2.15c-3.22-.07-6.45-.13-9.67-.13-.74,0-1.48,0-2.22.07-.13,0-.34.07-.47.07l-.27.13-.2.2-.13.27-.07.27-.07.47v1.14l.07.27.07.27.2.27.34.2.34.07c3.36.07,6.79.13,10.14.27l.4.07c.54.13,1.07.34,1.48.74.2.2.34.4.4.6.34.74.4,1.61.4,2.42,0,.94,0,1.88-.27,2.75-.07.13-.07.27-.13.4l-.2.27c-.13.2-.27.34-.47.47-.34.2-.67.4-1.01.47-.54.13-1.14.13-1.68.2-1.68.07-3.29.07-4.97.07-2.62,0-5.24.07-7.79.07v-2.28c1.75-.07,3.49-.07,5.24-.07h.2ZM96.27,20.79c-1.34-.13-2.75-.2-4.1-.4-.6-.07-1.21-.2-1.75-.4-.27-.13-.54-.2-.81-.4-.2-.13-.34-.27-.54-.4-.13-.13-.27-.34-.4-.47-.13-.2-.2-.4-.27-.6-.2-.74-.27-1.55-.27-2.35-.07-1.95-.07-3.83,0-5.78v-.47c.07-.87.13-1.75.67-2.49.2-.2.34-.4.6-.54.67-.34,1.48-.47,2.22-.54.81-.07,1.55-.07,2.35,0,1.55.07,3.16.13,4.7.27,2.28.2,4.5.4,6.79.67v2.55c-3.02-.27-5.98-.54-9-.74-.94-.07-1.95-.13-2.96-.07l-.47.07-.34.07-.27.13-.27.2-.27.27-.2.27-.13.34c-.07.2-.13.4-.13.6-.13.94-.2,1.95-.13,2.96,0,.81,0,1.61.13,2.42.07.2.07.4.13.6l.13.34.2.27.27.27.27.2.27.13.34.13c.27.07.54.13.81.13.87.13,1.81.2,2.69.27,3.02.27,6.11.54,9.14.87v2.62c-1.88-.2-3.83-.4-5.71-.54-1.14-.27-2.42-.34-3.7-.47h0ZM116.83,14.41c2.49.47,4.97.94,7.46,1.41v-5.71c1.14.27,2.28.54,3.49.74v14.71c-1.14-.27-2.28-.54-3.49-.81v-5.78c-2.02-.4-3.96-.81-5.98-1.21-1.81-.34-3.7-.67-5.51-1.01v5.71c-1.14-.2-2.28-.34-3.49-.54V7.62c1.14.13,2.35.27,3.49.47v5.64c1.34.2,2.69.4,4.03.67h0ZM143.24,15.35c1.21.4,2.42.81,3.7,1.21v2.42c-3.56-1.21-7.19-2.35-10.82-3.49l-1.21-.34v3.7c2.62.81,5.31,1.61,7.93,2.49,1.14.4,2.35.74,3.49,1.14v2.15c-3.36-1.14-6.79-2.22-10.21-3.22l-1.21-.34v3.9c2.55.74,5.11,1.55,7.59,2.35,1.48.47,2.96,1.01,4.5,1.48v2.49c-4.84-1.61-9.74-3.09-14.71-4.5l-.54-.13v-14.78c3.83,1.07,7.66,2.28,11.49,3.49h0Z"/>
      <path class="cls-1" d="M5.37,123.45c-2.15-7.19-3.29-13.91-3.36-19.68h45.01c.13,7.59,3.29,14.58,8.26,19.68H5.37Z"/>
      <path class="cls-1" d="M0,14.94l.87-.34C26,5.34,51.06.5,76.19.03c25.13-.4,50.19,3.56,75.31,12.03l.94.34v.94c-.2,30.17-.4,60.33-.6,90.5-.07,15.59-8.26,37.49-23.72,56.64-12.43,15.45-29.63,29.16-51.13,36.41h-.74c-21.7-5.58-38.83-18.74-51.33-34.13C8.94,142.93.74,119.28.67,103.22h0C.54,88.64,0,14.94,0,14.94h0ZM29.29,163.96h45.69v-18.34H16.39c-.2-.34-.4-.67-.54-1.01,3.16,5.64,6.85,11.22,11.09,16.53.81.94,1.55,1.88,2.35,2.82h0ZM75.04,166.24H31.38c11.29,12.36,25.87,22.64,43.67,27.61v-27.61h0ZM31.24,166.11c-.13-.13-.27-.27-.34-.4.07.13.2.27.34.4h0ZM30.43,165.23q-.07-.07-.07-.13c0,.07.07.13.07.13h0ZM15.12,143.26h59.93v-10.82h2.35v61.47c-.07,0-.13.07-.13.07,20.42-7.12,36.82-20.29,48.78-35.14,14.85-18.41,22.78-39.37,23.11-54.42v.13h-43.2c0-.47.07-.94.07-1.41v-.94h43.2c.07-6.45.07-12.9.13-19.28h-43.33v-2.28h43.33c.07-5.24.07-10.41.13-15.59h-43.47v-2.28h-.34v-.07h43.8c.07-6.32.07-12.56.13-18.88h-72.89v18.95h-2.35V24.68c-23.92.4-47.9,5.17-71.95,14.51l-.07-2.42c24.72-9.54,49.45-14.24,74.1-14.44,24.46-.2,48.84,4.03,73.16,12.43v2.42c.07-7.66.13-15.32.13-22.91C125.23,6.14,100.71,2.31,76.25,2.72,51.4,3.12,26.6,7.89,1.81,17.09c0,0,1.41,70.95,1.55,85.26l43.74-.07v.94c0,.47,0,.94.07,1.41H3.29c.13,5.37,1.28,11.62,3.22,18.21,0-.07-.07-.13-.07-.2h47.97c.4.47.81.94,1.28,1.34l1.48,1.01H7.19c1.95,5.91,4.57,12.09,7.93,18.27h0ZM15.79,144.54s0-.07-.07-.07c.07,0,.07.07.07.07h0ZM15.72,144.41c-.07-.07-.07-.13-.13-.2.07.07.07.13.13.2h0ZM15.32,143.73q0-.07,0,0t0,0h0ZM7.05,124.52c-.07-.13-.07-.27-.13-.34.07.13.13.2.13.34h0ZM6.79,123.65c-.07-.13-.07-.27-.13-.4.07.13.13.27.13.4h0ZM149.08,102.75v.07-.07h0ZM149.08,103.09v.13-.13h0ZM149.08,103.22v.07-.07h0ZM149.08,103.63v.07-.07h0ZM149.08,103.76v.07-.07h0ZM149.08,103.83s0,.07,0,0c0,.07,0,0,0,0h0ZM149.08,103.63h0v-.07h0v.07h0ZM149.08,103.42h0v-.07h0v.07h0ZM149.08,102.42h0s0-.07,0,0v-.07h0v.07h0ZM76.72,41.55h72.83v1.14-5.44c-24.25-8.47-48.51-12.7-72.83-12.56v16.86h0ZM149.55,42.69v.54-.54h0ZM149.55,43.43v.4-.4h0ZM76.59,194.19q-.07,0-.13.07.07,0,.13-.07h0ZM75.65,194.06c-.2-.07-.34-.07-.54-.13.2,0,.4.07.54.13h0ZM77.13,193.99q.07,0,0,0,.07,0,0,0h0Z"/>
      <path class="cls-1" d="M12.83,52.1c1.28-.81,2.62-1.61,3.96-2.28-.2-2.08-.4-5.31.13-7.05,1.01-3.22,3.96-5.85,7.46-5.24.2.07.34.27.2.34-1.95,1.01-3.49,2.55-4.37,4.7-.27.6-1.21,4.9.2,5.24.13.07.27.07.47.07,2.55-1.07,5.17-2.02,7.86-2.82,0-2.08.07-4.97.81-6.52,1.34-3.02,4.7-5.24,8.33-4.17.2.07.34.34.2.4-2.15.74-3.9,2.02-5.04,4.03-.34.6-1.75,4.7-.27,5.24h.07c2.49-.54,5.04-1.01,7.79-1.34.34-2.08.87-4.77,1.81-6.18,2.02-2.96,6.05-4.97,9.81-3.56.2.07.34.34.13.4-2.49.6-4.64,1.75-6.18,3.7-.4.54-2.49,4.3-1.28,5.17.13,0,.27,0,.4-.07,2.15-.2,4.64-.27,6.99-.13.6-1.28,1.21-2.42,1.88-3.16,2.35-2.42,7.52-3.29,9.07-1.21.13.13.2.4,0,.4-2.22.07-4.5.4-6.18,1.95-.27.27-1.21,1.21-1.75,2.28,3.56.6,6.58,1.81,7.52,4.1.34.74.54,1.41.4,2.22,0,.2-.47.07-.6-.13-4.5-4.17-11.69-4.64-21.3-2.96-9.74,1.68-17.87,4.57-26.6,8.73,3.49,3.96-2.02,6.99-3.83,2.82-4.23,5.04-8.13-2.28-2.35-3.16-3.29-5.11,3.36-5.31,4.23-1.81h0Z"/>
      <path class="cls-1" d="M14.04,92.27c1.14-.87,2.62-1.61,3.83-2.35-1.21-1.95-1.95-4.77-1.48-6.58.81-3.22,2.82-4.77,5.31-4.64.2,0,.34.27.2.34-1.75,1.14-2.02,2.62-2.55,4.84-.27,1.21.4,3.22,1.28,3.96,2.22-1.21,2.15-1.01,4.5-1.88-.67-2.08-.54-4.9.34-6.65,1.34-2.82,3.56-3.9,5.78-3.43.2.07.34.27.13.34-1.75.74-5.31,3.56-2.96,8.87,2.15-.74,2.28-.87,5.04-1.48.2-2.08.27-4.57,1.07-6.05,1.68-3.02,5.64-4.43,7.46-3.7.2.07.34.34.13.4-1.01.67-2.35,1.21-3.7,3.22-.74,1.07-2.02,3.56-1.68,5.24,1.95-.27,4.5-.4,6.72-.34.47-1.28,1.41-2.82,2.02-3.56.4-.47.94-.87,1.48-1.07v7.52c-3.7-.2-7.79.2-11.69,1.14-8.8,2.08-11.09,3.7-18.95,7.93,4.7,2.96.13,7.46-2.75,3.02-5.11,5.85-8.4-1.68-3.09-2.82-4.03-4.9,2.55-7.52,3.56-2.28h0Z"/>
      <path class="cls-1" d="M11.76,72.25c1.34-.81,3.16-1.41,4.5-2.08-.13-2.08-.4-3.96.2-5.71,1.07-3.16,2.75-4.77,5.44-4.5.2.07.34.27.2.4-1.95,1.01-1.48,2.35-2.35,4.43-.27.6-.94,3.16.47,3.56.13.07.27.07.47.07,2.55-1.01,1.61-.94,4.23-1.61.07-2.02.2-4.77.87-6.25,1.41-2.89,4.03-4.3,6.45-3.7.2.07.6.54.4.6-1.95.6-5.31,4.57-3.9,7.66,1.68-.27,2.82-.81,5.85-1.21.4-2.08,1.07-4.17,2.08-5.58,2.08-2.89,5.31-3.49,7.19-2.62.2.07.47.6.27.67-2.49.54-2.55.27-4.17,2.22-.87,1.01-2.62,3.76-1.34,5.04,2.15-.13,3.63-.4,5.98-.2.6-1.21,1.07-2.89,1.75-3.56,2.35-2.42,6.45-2.62,7.79-1.01.13.13.2.4,0,.4-2.22.07-3.02.67-4.77,2.22-.2.13-.6.67-1.07,1.34h-1.28v4.17c-3.63-.34-7.59-.2-11.29.34-9.74,1.48-13.3,3.7-21.36,7.59,3.43,4.03-2.15,6.85-3.83,2.62-4.3,4.97-8.13-2.49-2.22-3.22-3.29-5.31,2.49-6.72,3.43-2.08h0Z"/>
      <path class="cls-1" d="M104.54,64.19v39.03c0,15.39-12.56,27.88-28.08,27.88s-28.08-12.5-28.08-27.88v-39.03h56.17M105.88,62.78h-58.92v40.38c0,16.06,13.24,29.29,29.43,29.29s29.43-13.24,29.43-29.29l.07-40.38h0Z"/>
      <path class="cls-1" d="M75.18,91.4c.27.27.87-.07,1.07-.34.47-.74.4-1.68.47-2.62.07-1.01.07-1.88-.27-2.82-.54-1.61-1.28-2.89-3.09-3.16-.2-.07-.6.34-.47.47,1.21,1.28,1.68,1.21,2.02,3.16.34,1.88.13,5.17.27,5.31h0ZM62.48,114.85c.27.07.87-.74,1.07-1.21.2-.4.13-1.21.13-1.28-.07-.13-.74.13-1.07.13s-.6-.07-1.07-.13c-.47-.07-.4-1.14-.47-1.75-.13-1.55-.2-3.09-.13-4.64,0-.4.13-.94.47-1.21.47-.27,1.14-.2,1.68-.13,1.07.2,2.08.74,3.22.94.6.13,1.28.07,1.88-.13.54-.13.94-.54,1.41-.74.27-.07.6-.13.81,0,.87.47,1.48,1.34,2.35,1.68,1.14.34,2.35.2,3.56.27.94,0,1.88-.13,2.82,0,.4.07,1.07.13,1.21.6.13.6-.87,1.14-.74,1.75.27.94,1.34,1.41,1.81,2.22.2.34.13.74,0,1.07-.13.27-.6.34-.81.6-.27.4-.34.87-.6,1.28-.27.4-.67.74-1.07,1.07-.87.67-1.75,1.34-2.75,1.88-.34.2-.94-.2-1.07.13-.27.6-.54,1.34-.81,1.75s-.6.47-.81.67c-.2.27-.47.74-.34.81.13.07,1.41.07,1.88,0s.74-.13.87-.2c.13-.13-.07-.54-.2-1.34-.07-.81,2.15-1.14,3.22-1.75,1.14-.74,2.28-1.55,3.43-2.22.47-.27,1.14-.34,1.55-.74.2-.2.13-.54.13-.81,0-.67-.13-1.34-.13-2.02,0-.34,0-.74.27-.94.2-.2.6-.27.81-.13.4.2.47.81.81,1.07.54.4,1.21.54,1.81.81.54.27,1.48.27,1.55.81.13,1.01-.54,1.95-.94,2.82-.2.47-.67.74-.94,1.21-.13.27-.13.6-.34.81-.54.54-1.28.87-1.81,1.41-.4.4-.74.81-.94,1.28-.13.27-.2.54-.34.81-.2.27-.54.34-.74.74s-.67,1.48-.27,1.41c.4-.07,2.75-.47,2.82-.74.07-.2-.13-.81-.27-1.55s1.55-1.28,2.35-1.75c.47-.27,1.14-.13,1.55-.47.27-.2.13-.67.2-.94.2-.47.34-1.01.74-1.41.47-.54,1.28-.74,1.68-1.28.4-.67.87-1.48.74-2.22-.13-.6-.87-.81-1.28-1.28-.34-.34-.67-.74-.81-1.21-.2-.67-.34-1.34-.13-2.02.27-.81,1.07-1.34,1.55-2.02.4-.6,1.01-1.07,1.21-1.75.2-.81-.2-1.68-.27-2.49,0-.13-.13-.34,0-.47.54-.47,1.14-1.07,1.88-1.21.67-.07,1.21.6,1.88.74.67.07,1.48.13,2.15-.13.2-.07.27-.54.13-.74-.47-.4-1.48-.27-1.68-.81-.13-.47.81-.6,1.07-1.07.34-.6.6-1.28.6-2.02,0-.27-.54-.27-.74-.13-.34.2-.34.67-.6.94-.2.2-.54.27-.81.27s-.67-.13-.81-.34c-.2-.2-.34-.67-.13-.81.54-.34,1.28-.2,1.88-.34.27-.07.6-.13.74-.34.2-.4.2-.87,0-1.28-.07-.2-.4-.2-.6-.13-.27.07-.4.47-.74.47-.4,0-.81-.2-1.07-.47-.2-.27-.27-.67-.13-.94.2-.47.87-.6,1.07-1.07.27-.6.47-1.34.34-2.02-.07-.27-.6-.4-.81-.2-.34.2-.27.67-.47.94-.27.4-.4,1.01-.81,1.21-.27.13-.74-.13-.81-.47-.13-.54.2-1.07.34-1.55.2-.54.47-1.07.81-1.55s1.01-.67,1.28-1.21c.2-.4.4-.94.13-1.28-.2-.27-.67-.07-.94.13-.2.13-.13.6-.34.74-.6.27-1.34.07-1.88.34-.47.27-.67.74-.94,1.21-.47.81-.54,2.22-.74,2.35-.2.2-.67.13-.81-.13-.2-.34.13-.87-.13-1.21-.2-.2-.74-.2-.94,0-.27.27-.34.67-.34,1.07,0,.6.07,1.21.34,1.75.47.87,1.21,1.55,1.81,2.35s1.34,1.55,1.68,2.49c.2.6.27,1.34,0,1.88-.2.54-.74,1.07-1.28,1.07-.74-.07-1.28-.87-1.88-1.28-.6-.4-1.21-.94-1.88-1.07-1.55-.27-3.16,0-4.77,0-1.41,0-2.89.2-4.3,0-.67-.07-1.41-.34-1.88-.81s-.81-1.14-.81-1.75c-.07-.87.27-1.68.6-2.49.27-.54.67-1.07,1.21-1.41.4-.27,1.07-.4,1.48-.27.47.2,1.75,1.95,2.02,1.88.27-.07.07-1.61-.07-2.08-.27-.74-1.07-1.14-1.28-1.88-.07-.2.27-.47.47-.47.4,0,.87.27,1.21.6.2.13,1.07,1.41,1.28,1.34.2-.07-.13-1.81-.34-2.35-.34-.74-1.41-1.28-1.48-1.48-.07-.13,0-.27.2-.34.4,0,.81.2,1.21.34.34.13.87.54,1.07.47s0-.67-.2-.94c-.74-.87-1.75-1.41-2.49-2.22-.4-.4-.81-.94-.81-1.55,0-.34.4-.67.74-.81.6-.27,1.41-.4,1.95-.74.2-.13.07-.27-.13-.34-.87-.34-1.81-.47-2.75-.47-.54,0-1.01.34-1.55.47-.34.13-.67.34-1.07.34-.67,0-1.41.07-1.88-.34-.27-.27.07-.81.27-1.21.2-.34.54-.54.81-.81.2-.2.81-.4.6-.47s-1.28-.07-1.88.13c-.54.13-1.01.34-1.41.74-.34.34-.27,1.07-.74,1.28-.81.47-1.21.34-2.08.74-.2.13-.67.67-.87.74-1.07.13-3.22-.4-3.29-.2-.13.2,1.68,1.21,2.02,2.15.13.4-.87-.2-1.28-.13-.67.07-1.34.2-1.88.47-.54.27-1.01.74-1.41,1.21-.4.4-.6.94-1.07,1.28-.2.13-.67-.07-.81.13-.2.27-.27.87.07.87l1.88.13c.34,0-.34.74-.13,1.07.13.2.6.13.81,0,.27-.13.4-.54.74-.74s.67-.47,1.07-.47c.47,0,1.07.2,1.28.6.2.4-.27.87-.34,1.28-.07.47.2,1.07-.13,1.41-1.01.94-1.34.13-2.82,2.02-1.21,1.48-.67.67-1.07,2.62-.07.4-.13.81-.47,1.07-.34.2-.87.34-1.21.13-.67-.34-1.07-1.01-1.55-1.68-.27-.34-.13-.94-.47-1.21-.47-.27-1.14-.27-1.68-.13-.4.13-.6.6-.81.94-.54.74-.94,1.61-1.41,2.35-.4.6-.94,1.14-1.28,1.75-.2.34-.07.74-.27,1.07-.4.94-.74,1.81-1.21,2.69-.2.34-.6.54-.74.94-.07.4.07,1.28.27,1.28s.87-.47,1.28-.74c.47-.2,1.34-.47,1.41-.6s-.47-.6-.74-.94c-.47-.6.54-1.48.94-2.15.13-.27.47-.34.6-.6.27-.54.34-1.21.6-1.75.34-.74.74-1.48,1.28-2.02.27-.27.74-.47,1.07-.2.54.34.6,1.07.94,1.68.27.4.6.81.74,1.28.13.4-.27.94,0,1.28.34.4,1.01.54,1.55.6l1.21.13.13,1.68c.07.6-1.28.13-1.88.27-.54.13-1.07.34-1.68.47-.54.13-1.55-.34-1.68.27-.47,2.35.13,4.7.27,7.05,0,.6-.34,1.61.27,1.88l1.14.47c.2.47.34,1.07.6,1.41-.07.34.27.4.54.47h0Z"/>
      <path class="cls-1" d="M99.5,70.03c0-.47-.34-.67-.94-.67h-2.28c-.6,0-.94.2-.94.67s.34.67.94.67h.47v4.23c0,.74.2,1.07.67,1.07s.67-.34.67-1.07v-4.23h.47c.67,0,.94-.2.94-.67h0ZM92.98,71.51c0,.54-.27.81-.81.81h-.6v-1.61h.6c.54,0,.81.27.81.81h0ZM94.46,75.34c0-.27-.13-.54-.4-.87l-1.07-1.34c.87-.2,1.41-.87,1.41-1.81,0-1.21-.81-2.08-2.22-2.08h-1.01c-.74,0-.94.34-.94,1.07v4.57c0,.74.2,1.07.67,1.07s.67-.34.67-1.07v-1.61l1.55,2.22c.27.34.47.54.74.54.34,0,.6-.27.6-.67h0ZM87.34,73.26h-1.41l.74-2.42.67,2.42h0ZM89.22,75.27c0-.13,0-.27-.07-.47l-1.48-4.7c-.2-.54-.54-.87-1.01-.87s-.81.34-1.01.94l-1.55,4.64c-.07.13-.07.27-.07.4,0,.4.27.74.6.74.27,0,.54-.2.67-.67l.2-.67h2.15l.13.6c.13.47.34.74.67.74.47.07.74-.2.74-.67h0ZM83.11,72.92c0-.74-.27-1.01-.81-1.01h-.87c-.54,0-.81.2-.81.67s.27.67.81.67h.4c0,.81-.4,1.34-1.07,1.34-.74,0-1.28-.81-1.28-2.08s.54-2.02,1.28-2.02,1.07.6,1.41.6c.27,0,.54-.34.54-.67,0-.67-.74-1.34-1.88-1.34-1.61,0-2.62,1.34-2.62,3.49s1.01,3.49,2.49,3.49,2.42-1.34,2.42-3.16h0ZM77.87,70.03c0-.47-.34-.67-.94-.67h-2.28c-.6,0-.94.2-.94.67s.34.67.94.67h.47v4.23c0,.74.2,1.07.67,1.07s.67-.34.67-1.07v-4.23h.47c.6,0,.94-.2.94-.67h0ZM73.43,70.03c0-.47-.34-.67-.94-.67h-2.28c-.6,0-.94.2-.94.67s.34.67.94.67h.47v4.23c0,.74.2,1.07.67,1.07s.67-.34.67-1.07v-4.23h.47c.6,0,.94-.2.94-.67h0ZM68.46,73.06v-2.75c0-.74-.2-1.07-.67-1.07s-.67.34-.67,1.07v2.62c0,1.14-.4,1.75-1.14,1.75s-1.14-.6-1.14-1.75v-2.62c0-.74-.2-1.07-.67-1.07s-.67.34-.67,1.07v2.75c0,1.95.94,3.02,2.49,3.02s2.49-1.07,2.49-3.02h0ZM62.95,70.03c0-.47-.34-.67-.94-.67h-2.28c-.6,0-.94.2-.94.67s.34.67.94.67h.47v4.23c0,.74.2,1.07.67,1.07s.67-.34.67-1.07v-4.23h.47c.6,0,.94-.2.94-.67h0ZM58.32,73.86c0-1.01-.54-1.61-1.61-2.02-.67-.27-1.07-.34-1.07-.81,0-.34.27-.54.67-.54.34,0,.74.2,1.01.2.4,0,.6-.27.6-.6,0-.54-.6-.94-1.61-.94-1.28,0-2.08.87-2.08,2.08,0,1.01.54,1.48,1.61,1.88.6.2,1.01.4,1.01.94,0,.4-.27.67-.67.67-.6,0-1.07-.34-1.41-.34-.4,0-.67.27-.67.67,0,.54.81,1.07,1.88,1.07,1.48-.07,2.35-1.01,2.35-2.28h0Z"/>
    </g>
  </g>
</svg>